<?xml version="1.0" encoding="UTF-8"?>
<svg width="830px" height="361px" viewBox="0 0 830 361" version="1.1" xmlns="http://www.w3.org/2000/svg" xmlns:xlink="http://www.w3.org/1999/xlink">
    <!-- Generator: Sketch 59 (86127) - https://sketch.com -->
    <title>logo</title>
    <desc>Created with Sketch.</desc>
    <defs>
        <polygon id="path-1" points="0 0.4505 190.0608 0.4505 190.0608 227.0665 0 227.0665"></polygon>
        <polygon id="path-3" points="0.4738 0.472 144.2188 0.472 144.2188 291.2826 0.4738 291.2826"></polygon>
        <polygon id="path-5" points="0.8646 0.4505 191.343 0.4505 191.343 296 0.8646 296"></polygon>
    </defs>
    <g id="logo" stroke="none" stroke-width="1" fill="white" fill-rule="evenodd">
        <g id="Group-12">
            <g id="Group-3" transform="translate(0.000000, 64.528000)">
                <mask id="mask-2" fill="white">
                    <use xlink:href="#path-1"></use>
                </mask>
                <g id="Clip-2"></g>
                <path d="M181.0898,57.5355 L135.8178,70.0295 C130.5308,50.3555 116.8318,40.5175 94.7178,40.5175 C73.8548,40.5175 63.4228,47.0635 63.4228,60.1575 C63.4228,65.3375 65.3348,69.4735 69.1558,72.5665 C72.9788,75.6605 82.9598,78.2755 99.0948,80.4105 C123.1578,83.6885 140.9628,87.4775 152.5078,91.7865 C164.0488,96.0955 173.1948,103.3485 179.9428,113.5435 C186.6858,123.7405 190.0608,136.3065 190.0608,151.2405 C190.0608,173.6435 181.8198,191.8835 165.3388,205.9565 C148.8568,220.0315 125.8028,227.0665 96.1778,227.0665 C42.4888,227.0665 10.4318,205.5985 -0.0002,162.6575 L52.3658,154.6875 C56.6758,174.2195 72.2528,183.9835 99.0988,183.9835 C109.3878,183.9835 118.0838,182.0795 125.1768,178.2635 C132.2708,174.4475 135.8178,169.3015 135.8178,162.8235 C135.8218,152.7445 127.9688,146.7815 112.2468,144.9295 C69.6818,139.5175 41.6888,131.0995 28.2698,119.6825 C14.8458,108.2655 8.1368,92.3615 8.1368,71.9685 C8.1368,51.2885 15.9228,34.1995 31.5028,20.6995 C47.0788,7.2015 68.9148,0.4505 97.0128,0.4505 C119.2648,0.4505 137.0688,4.9735 150.4218,14.0215 C163.7738,23.0685 173.9968,37.5755 181.0898,57.5355" id="Fill-1" fill="#fff" mask="url(#mask-2)"></path>
            </g>
            <g id="Group-6" transform="translate(215.000000, 0.528000)">
                <mask id="mask-4" fill="white">
                    <use xlink:href="#path-3"></use>
                </mask>
                <g id="Clip-5"></g>
                <path d="M96.0258,118.9506 L96.0258,210.9326 C96.0258,222.4236 97.6818,230.1046 101.0078,233.9816 C104.3328,237.8596 112.1568,239.7986 124.4828,239.7986 C130.1618,239.7986 136.7418,239.5126 144.2188,238.9366 L144.2188,286.5436 C126.1348,289.7016 113.1328,291.2826 105.2048,291.2826 C79.3358,291.2826 60.9758,286.1486 50.1278,275.8806 C39.2788,265.6136 33.8548,247.0516 33.8548,220.1956 L33.8548,118.9506 L0.4738,118.9506 L0.4738,68.9736 L37.4008,68.9736 L42.4078,4.7806 L96.0258,0.4716 L96.0258,68.9736 L141.2978,68.9736 L141.2978,118.9506 L96.0258,118.9506 Z" id="Fill-4" fill="#fff" mask="url(#mask-4)"></path>
            </g>
            <path d="M453.144,151.7906 L528.041,151.7906 C526.092,121.9206 514.201,106.9846 492.366,106.9846 C468.999,106.9846 455.922,121.9206 453.144,151.7906 M588.961,189.0576 L453.352,189.0576 C453.21,192.9346 453.144,196.3106 453.144,199.1816 C453.144,214.6916 457.141,226.3976 465.14,234.2946 C473.134,242.1946 482.698,246.1426 493.827,246.1426 C514.547,246.1426 526.998,234.7256 531.17,211.8916 L587.5,216.2006 C571.783,266.4646 539.862,291.5946 491.74,291.5946 C470.735,291.5946 452.897,287.2496 438.227,278.5626 C423.551,269.8746 411.451,257.2026 401.925,240.5416 C392.395,223.8836 387.634,203.9206 387.634,180.6566 C387.634,146.0476 397.193,118.1146 416.321,96.8596 C435.444,75.6066 460.029,64.9776 490.071,64.9776 C517.193,64.9776 540.455,74.8526 559.857,94.5976 C579.259,114.3446 588.961,145.8326 588.961,189.0576" id="Fill-7" fill="#fff"></path>
            <g id="Group-11" transform="translate(638.000000, 64.528000)">
                <mask id="mask-6" fill="white">
                    <use xlink:href="#path-5"></use>
                </mask>
                <g id="Clip-10"></g>
                <path d="M61.1586,127.3295 C61.1586,142.6975 62.0596,153.3235 63.8706,159.2115 C65.6776,165.1005 69.5036,170.3785 75.3456,175.0445 C81.1866,179.7125 87.5126,182.0455 94.3306,182.0455 C102.8136,182.0455 110.3946,177.5585 117.0706,168.5815 C123.7476,159.6075 127.0856,139.8235 127.0856,109.2345 C127.0856,66.2965 116.0956,44.8255 94.1216,44.8255 C85.7766,44.8255 78.1956,48.6325 71.3816,56.2435 C64.5636,63.8555 61.1586,76.7805 61.1586,95.0175 L61.1586,127.3295 Z M0.8646,296.0005 L0.8646,4.9745 L58.0286,4.9745 L58.0286,36.8555 C68.5976,12.5865 87.0956,0.4505 113.5246,0.4505 C136.3316,0.4505 155.0046,9.8935 169.5416,28.7775 C184.0746,47.6625 191.3436,75.1285 191.3436,111.1735 C191.3436,149.5175 184.0036,178.4205 169.3326,197.8785 C154.6576,217.3395 135.5676,227.0665 112.0636,227.0665 C88.2806,227.0665 71.3106,217.5175 61.1586,198.4175 L61.1586,296.0005 L0.8646,296.0005 Z" id="Fill-9" fill="#fff" mask="url(#mask-6)"></path>
            </g>
        </g>
    </g>
</svg>